<?xml version="1.0" encoding="utf-8"?>
<!-- Generator: Adobe Illustrator 22.0.0, SVG Export Plug-In . SVG Version: 6.00 Build 0)  -->
<svg version="1.1" id="OBJECTS" xmlns="http://www.w3.org/2000/svg" xmlns:xlink="http://www.w3.org/1999/xlink" x="0px" y="0px"
	 viewBox="0 0 500 500" style="enable-background:new 0 0 500 500;" xml:space="preserve">
<style type="text/css">
	.st0{fill:url(#SVGID_1_);}
	.st1{fill:url(#SVGID_2_);}
	.st2{fill:url(#SVGID_3_);}
	.st3{fill:url(#SVGID_4_);}
	.st4{fill:url(#SVGID_5_);}
	.st5{fill:url(#SVGID_6_);}
	.st6{fill:url(#SVGID_7_);}
	.st7{fill:url(#SVGID_8_);}
	.st8{fill:url(#SVGID_9_);}
	.st9{fill:url(#SVGID_10_);}
	.st10{fill:url(#SVGID_11_);}
	.st11{fill:url(#SVGID_12_);}
	.st12{fill:url(#SVGID_13_);}
	.st13{fill:url(#SVGID_14_);}
	.st14{fill:url(#SVGID_15_);}
	.st15{fill:#DD1D14;}
</style>
<g>
	<g>
		<g>
			<radialGradient id="SVGID_1_" cx="274.3552" cy="232.3686" r="18.0471" gradientUnits="userSpaceOnUse">
				<stop  offset="7.845374e-02" style="stop-color:#FF0100"/>
				<stop  offset="9.100402e-02" style="stop-color:#FF4400"/>
				<stop  offset="0.3069" style="stop-color:#FF4F00"/>
				<stop  offset="0.4794" style="stop-color:#FF5300"/>
				<stop  offset="0.5883" style="stop-color:#FF8300"/>
				<stop  offset="0.6141" style="stop-color:#FF4700"/>
				<stop  offset="0.8108" style="stop-color:#FF8B00"/>
			</radialGradient>
			<path class="st0" d="M281.6,209.9c0-1.1-0.9-2-2-2c-1.1,0-2,0.9-2,2c0,0.8,0.5,1.5,1.2,1.8v43.5h-11.6v1.6h13.2v-45.1
				C281.1,211.4,281.6,210.7,281.6,209.9z"/>
			<radialGradient id="SVGID_2_" cx="274.3552" cy="232.3686" r="18.0471" gradientUnits="userSpaceOnUse">
				<stop  offset="7.845374e-02" style="stop-color:#FF0100"/>
				<stop  offset="9.100402e-02" style="stop-color:#FF4400"/>
				<stop  offset="0.3069" style="stop-color:#FF4F00"/>
				<stop  offset="0.4794" style="stop-color:#FF5300"/>
				<stop  offset="0.5883" style="stop-color:#FF8300"/>
				<stop  offset="0.6141" style="stop-color:#FF4700"/>
				<stop  offset="0.8108" style="stop-color:#FF8B00"/>
			</radialGradient>
			<path class="st1" d="M281.6,209.9c0-1.1-0.9-2-2-2c-1.1,0-2,0.9-2,2c0,0.8,0.5,1.5,1.2,1.8v43.5h-11.6v1.6h13.2v-45.1
				C281.1,211.4,281.6,210.7,281.6,209.9z"/>
			<radialGradient id="SVGID_3_" cx="263.0106" cy="226.3115" r="26.3359" gradientUnits="userSpaceOnUse">
				<stop  offset="7.845374e-02" style="stop-color:#FF0100"/>
				<stop  offset="9.100402e-02" style="stop-color:#FF4400"/>
				<stop  offset="0.3069" style="stop-color:#FF4F00"/>
				<stop  offset="0.4794" style="stop-color:#FF5300"/>
				<stop  offset="0.5883" style="stop-color:#FF8300"/>
				<stop  offset="0.6141" style="stop-color:#FF4700"/>
				<stop  offset="0.8108" style="stop-color:#FF8B00"/>
			</radialGradient>
			<path class="st2" d="M265.7,258.1v-49.9h-16.4v-11.4c0.7-0.3,1.2-1,1.2-1.8c0-1.1-0.9-2-2-2s-2,0.9-2,2c0,0.8,0.5,1.5,1.2,1.8v13
				h16.4v49.9h15.4v-1.6H265.7z"/>
			<radialGradient id="SVGID_4_" cx="263.0106" cy="226.3115" r="26.3359" gradientUnits="userSpaceOnUse">
				<stop  offset="7.845374e-02" style="stop-color:#FF0100"/>
				<stop  offset="9.100402e-02" style="stop-color:#FF4400"/>
				<stop  offset="0.3069" style="stop-color:#FF4F00"/>
				<stop  offset="0.4794" style="stop-color:#FF5300"/>
				<stop  offset="0.5883" style="stop-color:#FF8300"/>
				<stop  offset="0.6141" style="stop-color:#FF4700"/>
				<stop  offset="0.8108" style="stop-color:#FF8B00"/>
			</radialGradient>
			<path class="st3" d="M265.7,258.1v-49.9h-16.4v-11.4c0.7-0.3,1.2-1,1.2-1.8c0-1.1-0.9-2-2-2s-2,0.9-2,2c0,0.8,0.5,1.5,1.2,1.8v13
				h16.4v49.9h15.4v-1.6H265.7z"/>
			<radialGradient id="SVGID_5_" cx="287.3877" cy="201.3826" r="8.94" gradientUnits="userSpaceOnUse">
				<stop  offset="7.845374e-02" style="stop-color:#FF0100"/>
				<stop  offset="9.100402e-02" style="stop-color:#FF4400"/>
				<stop  offset="0.3069" style="stop-color:#FF4F00"/>
				<stop  offset="0.4794" style="stop-color:#FF5300"/>
				<stop  offset="0.5883" style="stop-color:#FF8300"/>
				<stop  offset="0.6141" style="stop-color:#FF4700"/>
				<stop  offset="0.8108" style="stop-color:#FF8B00"/>
			</radialGradient>
			<path class="st4" d="M281.8,194.1c-0.3-0.7-1-1.2-1.8-1.2c-1.1,0-2,0.9-2,2c0,1.1,0.9,2,2,2c0.8,0,1.5-0.5,1.8-1.2h13.3v12.4
				h-11.5v1.6h13.1v-15.7H281.8z"/>
			<radialGradient id="SVGID_6_" cx="287.3877" cy="201.3826" r="8.94" gradientUnits="userSpaceOnUse">
				<stop  offset="7.845374e-02" style="stop-color:#FF0100"/>
				<stop  offset="9.100402e-02" style="stop-color:#FF4400"/>
				<stop  offset="0.3069" style="stop-color:#FF4F00"/>
				<stop  offset="0.4794" style="stop-color:#FF5300"/>
				<stop  offset="0.5883" style="stop-color:#FF8300"/>
				<stop  offset="0.6141" style="stop-color:#FF4700"/>
				<stop  offset="0.8108" style="stop-color:#FF8B00"/>
			</radialGradient>
			<path class="st5" d="M281.8,194.1c-0.3-0.7-1-1.2-1.8-1.2c-1.1,0-2,0.9-2,2c0,1.1,0.9,2,2,2c0.8,0,1.5-0.5,1.8-1.2h13.3v12.4
				h-11.5v1.6h13.1v-15.7H281.8z"/>
			<radialGradient id="SVGID_7_" cx="269.7481" cy="197.9107" r="12.5451" gradientUnits="userSpaceOnUse">
				<stop  offset="7.845374e-02" style="stop-color:#FF0100"/>
				<stop  offset="9.100402e-02" style="stop-color:#FF4400"/>
				<stop  offset="0.3069" style="stop-color:#FF4F00"/>
				<stop  offset="0.4794" style="stop-color:#FF5300"/>
				<stop  offset="0.5883" style="stop-color:#FF8300"/>
				<stop  offset="0.6141" style="stop-color:#FF4700"/>
				<stop  offset="0.8108" style="stop-color:#FF8B00"/>
			</radialGradient>
			<path class="st6" d="M285.1,197.7c-0.8,0-1.5,0.5-1.8,1.2h-4.6l-4.7-4.7h-21.5v1.6h20.8l4.7,4.7h5.3c0.3,0.7,1,1.2,1.8,1.2
				c1.1,0,2-0.9,2-2C287.1,198.6,286.2,197.7,285.1,197.7z"/>
			<radialGradient id="SVGID_8_" cx="269.7481" cy="197.9107" r="12.5451" gradientUnits="userSpaceOnUse">
				<stop  offset="7.845374e-02" style="stop-color:#FF0100"/>
				<stop  offset="9.100402e-02" style="stop-color:#FF4400"/>
				<stop  offset="0.3069" style="stop-color:#FF4F00"/>
				<stop  offset="0.4794" style="stop-color:#FF5300"/>
				<stop  offset="0.5883" style="stop-color:#FF8300"/>
				<stop  offset="0.6141" style="stop-color:#FF4700"/>
				<stop  offset="0.8108" style="stop-color:#FF8B00"/>
			</radialGradient>
			<path class="st7" d="M285.1,197.7c-0.8,0-1.5,0.5-1.8,1.2h-4.6l-4.7-4.7h-21.5v1.6h20.8l4.7,4.7h5.3c0.3,0.7,1,1.2,1.8,1.2
				c1.1,0,2-0.9,2-2C287.1,198.6,286.2,197.7,285.1,197.7z"/>
			<radialGradient id="SVGID_9_" cx="264.2581" cy="228.2834" r="20.3489" gradientUnits="userSpaceOnUse">
				<stop  offset="7.845374e-02" style="stop-color:#FF0100"/>
				<stop  offset="9.100402e-02" style="stop-color:#FF4400"/>
				<stop  offset="0.3069" style="stop-color:#FF4F00"/>
				<stop  offset="0.4794" style="stop-color:#FF5300"/>
				<stop  offset="0.5883" style="stop-color:#FF8300"/>
				<stop  offset="0.6141" style="stop-color:#FF4700"/>
				<stop  offset="0.8108" style="stop-color:#FF8B00"/>
			</radialGradient>
			<path class="st8" d="M272.7,212.3v-8.4h-17.8c-0.3-0.7-1-1.2-1.8-1.2c-1.1,0-2,0.9-2,2c0,1.1,0.9,2,2,2c0.8,0,1.5-0.5,1.8-1.2
				H271v7.4l4.8,5v34.2h-8.7v1.6h10.4v-36.5L272.7,212.3z"/>
			<radialGradient id="SVGID_10_" cx="264.2581" cy="228.2834" r="20.3489" gradientUnits="userSpaceOnUse">
				<stop  offset="7.845374e-02" style="stop-color:#FF0100"/>
				<stop  offset="9.100402e-02" style="stop-color:#FF4400"/>
				<stop  offset="0.3069" style="stop-color:#FF4F00"/>
				<stop  offset="0.4794" style="stop-color:#FF5300"/>
				<stop  offset="0.5883" style="stop-color:#FF8300"/>
				<stop  offset="0.6141" style="stop-color:#FF4700"/>
				<stop  offset="0.8108" style="stop-color:#FF8B00"/>
			</radialGradient>
			<path class="st9" d="M272.7,212.3v-8.4h-17.8c-0.3-0.7-1-1.2-1.8-1.2c-1.1,0-2,0.9-2,2c0,1.1,0.9,2,2,2c0.8,0,1.5-0.5,1.8-1.2
				H271v7.4l4.8,5v34.2h-8.7v1.6h10.4v-36.5L272.7,212.3z"/>
			<radialGradient id="SVGID_11_" cx="273.218" cy="202.1768" r="14.7157" gradientUnits="userSpaceOnUse">
				<stop  offset="7.845374e-02" style="stop-color:#FF0100"/>
				<stop  offset="9.100402e-02" style="stop-color:#FF4400"/>
				<stop  offset="0.3069" style="stop-color:#FF4F00"/>
				<stop  offset="0.4794" style="stop-color:#FF5300"/>
				<stop  offset="0.5883" style="stop-color:#FF8300"/>
				<stop  offset="0.6141" style="stop-color:#FF4700"/>
				<stop  offset="0.8108" style="stop-color:#FF8B00"/>
			</radialGradient>
			<path class="st10" d="M293.8,201.1c0-1.1-0.9-2-2-2c-1.1,0-2,0.9-2,2c0,0.8,0.5,1.5,1.2,1.8v0.9h-13.4l-5-5h-19.9v1.6h19.2l5,5
				h15.7v-2.6C293.3,202.6,293.8,201.9,293.8,201.1z"/>
			<radialGradient id="SVGID_12_" cx="273.218" cy="202.1768" r="14.7157" gradientUnits="userSpaceOnUse">
				<stop  offset="7.845374e-02" style="stop-color:#FF0100"/>
				<stop  offset="9.100402e-02" style="stop-color:#FF4400"/>
				<stop  offset="0.3069" style="stop-color:#FF4F00"/>
				<stop  offset="0.4794" style="stop-color:#FF5300"/>
				<stop  offset="0.5883" style="stop-color:#FF8300"/>
				<stop  offset="0.6141" style="stop-color:#FF4700"/>
				<stop  offset="0.8108" style="stop-color:#FF8B00"/>
			</radialGradient>
			<path class="st11" d="M293.8,201.1c0-1.1-0.9-2-2-2c-1.1,0-2,0.9-2,2c0,0.8,0.5,1.5,1.2,1.8v0.9h-13.4l-5-5h-19.9v1.6h19.2l5,5
				h15.7v-2.6C293.3,202.6,293.8,201.9,293.8,201.1z"/>
			<radialGradient id="SVGID_13_" cx="270.8839" cy="234.6945" r="11.2269" gradientUnits="userSpaceOnUse">
				<stop  offset="7.845374e-02" style="stop-color:#FF0100"/>
				<stop  offset="9.100402e-02" style="stop-color:#FF4400"/>
				<stop  offset="0.3069" style="stop-color:#FF4F00"/>
				<stop  offset="0.4794" style="stop-color:#FF5300"/>
				<stop  offset="0.5883" style="stop-color:#FF8300"/>
				<stop  offset="0.6141" style="stop-color:#FF4700"/>
				<stop  offset="0.8108" style="stop-color:#FF8B00"/>
			</radialGradient>
			<path class="st12" d="M272.9,221c0-1.1-0.9-2-2-2c-1.1,0-2,0.9-2,2c0,0.8,0.5,1.5,1.2,1.8v27.7h1.6v-27.7
				C272.4,222.5,272.9,221.8,272.9,221z"/>
			<radialGradient id="SVGID_14_" cx="270.8839" cy="234.6945" r="11.2269" gradientUnits="userSpaceOnUse">
				<stop  offset="7.845374e-02" style="stop-color:#FF0100"/>
				<stop  offset="9.100402e-02" style="stop-color:#FF4400"/>
				<stop  offset="0.3069" style="stop-color:#FF4F00"/>
				<stop  offset="0.4794" style="stop-color:#FF5300"/>
				<stop  offset="0.5883" style="stop-color:#FF8300"/>
				<stop  offset="0.6141" style="stop-color:#FF4700"/>
				<stop  offset="0.8108" style="stop-color:#FF8B00"/>
			</radialGradient>
			<path class="st13" d="M272.9,221c0-1.1-0.9-2-2-2c-1.1,0-2,0.9-2,2c0,0.8,0.5,1.5,1.2,1.8v27.7h1.6v-27.7
				C272.4,222.5,272.9,221.8,272.9,221z"/>
		</g>
		<g>
			<radialGradient id="SVGID_15_" cx="271.0154" cy="223.9187" r="50.3484" gradientUnits="userSpaceOnUse">
				<stop  offset="7.845374e-02" style="stop-color:#FF0100"/>
				<stop  offset="9.100402e-02" style="stop-color:#FF4400"/>
				<stop  offset="0.3069" style="stop-color:#FF4F00"/>
				<stop  offset="0.4794" style="stop-color:#FF5300"/>
				<stop  offset="0.5883" style="stop-color:#FF8300"/>
				<stop  offset="0.6141" style="stop-color:#FF4700"/>
				<stop  offset="0.8108" style="stop-color:#FF8B00"/>
			</radialGradient>
			<path class="st14" d="M271,274.3c-27.8,0-50.3-22.6-50.3-50.3s22.6-50.3,50.3-50.3c27.8,0,50.3,22.6,50.3,50.3
				S298.8,274.3,271,274.3z M271,178.6c-25,0-45.3,20.3-45.3,45.3s20.3,45.3,45.3,45.3s45.3-20.3,45.3-45.3S296,178.6,271,178.6z"/>
		</g>
		<g>
			<path class="st15" d="M271,274.3c-27.8,0-50.3-22.6-50.3-50.3s22.6-50.3,50.3-50.3c27.8,0,50.3,22.6,50.3,50.3
				S298.8,274.3,271,274.3z M271,178.6c-25,0-45.3,20.3-45.3,45.3s20.3,45.3,45.3,45.3s45.3-20.3,45.3-45.3S296,178.6,271,178.6z"/>
		</g>
	</g>
</g>
</svg>
